<?xml version="1.0" standalone="no"?>
<!DOCTYPE svg PUBLIC "-//W3C//DTD SVG 20010904//EN"
 "http://www.w3.org/TR/2001/REC-SVG-20010904/DTD/svg10.dtd">
<svg version="1.0" xmlns="http://www.w3.org/2000/svg"
 width="1024.000000pt" height="1536.000000pt" viewBox="0 0 1024.000000 1536.000000"
 preserveAspectRatio="xMidYMid meet">

<g transform="translate(0.000000,1536.000000) scale(0.100000,-0.100000)"
fill="#000000" stroke="none">
<path d="M1342 12778 c-23 -29 -18 -719 8 -1003 36 -400 113 -710 224 -909 20
-36 47 -78 60 -93 l24 -29 -41 -177 c-39 -165 -43 -176 -62 -169 -11 4 -60 7
-110 7 -77 -1 -97 -4 -140 -27 -114 -60 -165 -144 -165 -275 0 -46 -4 -83 -9
-83 -20 0 -95 -88 -118 -138 -21 -45 -24 -64 -22 -142 3 -88 2 -90 -30 -130
-66 -82 -87 -176 -61 -272 25 -88 124 -189 220 -225 25 -9 46 -18 48 -19 2 -1
-13 -56 -33 -121 -21 -65 -40 -146 -43 -180 -4 -54 -1 -70 23 -118 41 -85 107
-126 225 -141 41 -6 98 8 171 40 13 6 18 -1 23 -31 14 -78 68 -281 108 -403
148 -459 354 -808 652 -1105 315 -313 744 -548 1196 -655 52 -13 96 -24 98
-25 1 -1 -18 -51 -44 -111 -125 -300 -244 -727 -309 -1114 -120 -719 -133
-1465 -36 -2099 25 -163 26 -151 -1 -151 -13 0 -75 -11 -138 -24 -380 -80
-627 -265 -647 -485 -7 -73 21 -139 72 -171 75 -47 216 -80 430 -102 181 -18
828 -15 1043 5 472 45 765 114 817 193 28 43 29 96 6 198 -22 93 -22 97 -6
245 19 189 49 365 76 455 l20 68 62 -7 c220 -24 379 -158 489 -410 45 -102 53
-124 77 -215 31 -115 51 -236 51 -303 0 -109 51 -176 175 -232 283 -128 744
-193 1275 -182 348 7 509 35 621 105 77 49 94 82 94 183 0 77 -3 91 -34 153
-67 130 -236 261 -457 352 -60 25 -112 48 -115 52 -7 7 26 390 33 398 2 2 28
-3 58 -11 162 -44 300 -59 535 -59 244 0 324 9 527 60 654 163 1162 625 1307
1187 48 186 52 404 11 561 -126 473 -594 689 -1020 470 -226 -116 -455 -344
-823 -816 -190 -245 -296 -365 -405 -461 -69 -60 -195 -137 -207 -126 -13 14
13 51 54 78 71 45 174 160 220 243 60 108 84 210 79 328 -3 52 -8 102 -12 110
-5 12 23 36 111 95 529 356 790 603 908 858 54 117 69 187 69 322 0 163 -35
289 -123 440 -196 339 -678 727 -1271 1023 -63 31 -117 58 -119 60 -3 1 13 21
36 45 101 105 210 256 255 353 12 27 23 50 23 51 0 1 27 -8 60 -19 145 -48
224 30 277 272 20 93 23 132 22 340 -1 211 -3 249 -27 370 -14 74 -25 135 -24
136 1 1 31 16 67 34 77 39 177 135 213 206 64 125 80 300 39 419 l-20 59 38
81 c46 95 84 208 107 325 26 127 23 372 -6 510 -69 330 -201 565 -453 805
-436 417 -1021 573 -1533 408 -179 -58 -380 -178 -535 -321 l-73 -67 239 -195
c291 -238 388 -312 614 -465 306 -208 445 -320 633 -510 113 -114 286 -315
272 -315 -4 0 -57 42 -119 94 -154 130 -293 231 -646 471 -460 313 -663 471
-955 746 -184 174 -349 290 -558 394 -216 107 -342 139 -552 138 -165 0 -256
-18 -355 -68 -203 -103 -250 -307 -123 -528 80 -137 257 -293 458 -402 39 -20
98 -53 132 -72 l62 -34 -66 -87 c-88 -118 -196 -283 -275 -422 -74 -131 -84
-152 -132 -270 l-34 -85 -73 -12 c-286 -48 -501 -195 -611 -418 -60 -121 -73
-181 -73 -350 0 -107 5 -174 18 -234 87 -406 389 -847 801 -1171 37 -29 66
-54 64 -55 -4 -4 -200 30 -297 51 -371 80 -706 227 -946 416 -72 57 -208 192
-275 273 -125 153 -252 372 -355 613 l-57 134 45 91 c78 159 107 275 107 432
0 125 -21 222 -72 325 -66 137 -197 250 -335 291 -36 10 -42 16 -38 33 3 12
19 82 35 156 16 74 32 144 35 156 2 11 17 26 31 33 185 84 505 392 765 737
197 260 499 735 499 785 0 11 -10 24 -22 29 -13 5 -201 61 -418 124 -379 109
-518 149 -880 251 -256 72 -674 185 -686 185 -6 0 -16 -6 -22 -12z m4313
-1993 c359 -65 739 -262 1185 -614 114 -90 367 -341 383 -381 l12 -28 55 32
c129 76 270 113 366 95 71 -13 123 -54 159 -124 28 -55 30 -65 30 -174 0 -107
-2 -121 -28 -172 -51 -104 -161 -179 -315 -215 -37 -9 -68 -17 -70 -19 -2 -2
10 -46 27 -98 103 -323 122 -760 39 -925 -13 -25 -29 -48 -35 -50 -7 -2 -49
31 -94 74 -46 44 -84 73 -89 68 -5 -5 -23 -52 -40 -104 -63 -188 -142 -326
-265 -459 l-57 -61 -63 0 c-131 0 -386 -70 -546 -150 -351 -177 -590 -464
-785 -945 l-53 -130 -153 2 c-236 3 -566 40 -878 99 -74 14 -150 28 -168 31
-28 5 -32 9 -26 27 17 55 108 274 156 377 109 230 279 514 303 505 6 -2 45 -9
86 -16 84 -13 129 -3 129 28 0 22 -14 28 -210 102 -132 50 -139 54 -295 176
-349 274 -523 449 -670 673 -166 253 -247 490 -248 726 -2 194 51 325 177 441
123 114 284 177 526 204 58 7 111 17 118 22 22 19 13 44 -23 61 -42 20 -42 24
18 167 71 171 142 296 243 426 154 199 342 306 609 348 66 10 402 -3 490 -19z
m-4106 -569 c15 -8 33 -22 41 -30 11 -14 9 -19 -12 -36 -19 -14 -115 -145
-124 -167 -3 -10 -104 34 -121 54 -43 46 -26 128 36 170 40 27 135 32 180 9z
m473 -125 c179 -85 262 -302 213 -556 -19 -98 -44 -165 -107 -287 -50 -96 -56
-128 -21 -128 14 0 29 -31 67 -133 165 -449 348 -729 638 -975 348 -295 827
-470 1366 -499 67 -3 122 -8 122 -10 0 -2 -12 -16 -26 -31 -42 -44 -187 -241
-246 -332 -56 -88 -204 -345 -278 -485 -23 -44 -46 -84 -51 -89 -20 -22 -383
86 -570 169 -439 198 -818 534 -1066 947 -156 260 -320 679 -409 1048 l-18 75
57 227 c32 125 69 262 83 305 37 110 108 258 153 317 52 68 65 96 53 108 -6 6
-21 4 -43 -8 -24 -12 -63 -19 -129 -22 -85 -3 -100 -1 -140 20 -108 58 -107
199 2 292 87 75 246 96 350 47z m-729 -220 c28 -15 73 -34 99 -41 44 -12 49
-16 59 -54 25 -95 85 -151 187 -176 l67 -16 -46 -27 c-39 -23 -57 -27 -121
-27 -130 0 -247 48 -326 134 -38 41 -42 51 -42 96 0 28 5 61 11 73 11 21 49
67 56 67 2 0 27 -13 56 -29z m16 -445 c36 -14 95 -31 131 -38 71 -14 80 -20
80 -60 0 -58 -73 -108 -158 -108 -47 0 -181 47 -220 77 -76 58 -95 142 -43
194 l29 29 57 -35 c32 -19 87 -45 124 -59z m5597 -2052 c147 -55 438 -213 639
-347 371 -247 624 -489 748 -717 49 -89 87 -225 87 -310 0 -80 -28 -198 -66
-272 -119 -238 -340 -442 -857 -793 -120 -81 -221 -154 -224 -162 -3 -8 11
-50 32 -94 36 -76 37 -84 33 -159 -6 -107 -56 -209 -142 -296 -234 -234 -588
-144 -667 170 -19 77 -7 237 26 326 58 160 123 246 398 527 241 246 285 294
392 424 102 123 165 216 165 243 0 26 -88 110 -177 169 -197 131 -556 281
-628 263 -33 -8 -33 -41 -1 -75 l24 -26 -19 -90 c-30 -147 -42 -351 -29 -511
11 -139 31 -278 50 -344 14 -50 15 -50 -38 -50 -98 0 -231 50 -339 126 -126
90 -215 221 -269 399 -26 85 -28 101 -28 290 -1 178 2 210 22 293 92 365 329
734 603 940 67 50 158 102 180 102 9 0 48 -12 85 -26z m-2846 -879 c33 -17 60
-62 60 -97 -1 -41 -36 -104 -72 -126 -52 -33 -93 -29 -134 12 -28 28 -34 41
-34 78 0 52 27 101 72 128 39 24 69 25 108 5z m1691 -203 c42 -37 51 -110 20
-160 -46 -73 -131 -93 -181 -43 -51 50 -52 124 -3 182 48 57 114 66 164 21z
m1153 -217 c121 -46 346 -170 346 -191 0 -16 -278 -340 -363 -422 l-44 -43
-14 78 c-16 87 -19 425 -6 536 5 37 10 67 12 67 1 0 32 -11 69 -25z m-2744
-109 c269 -62 910 -152 1220 -172 58 -4 110 -11 117 -16 7 -5 10 -22 8 -36 -3
-15 -19 -112 -35 -217 -87 -542 -159 -706 -353 -795 -105 -49 -207 -63 -397
-57 -183 6 -323 31 -494 88 -171 56 -276 146 -313 267 -43 137 -5 445 99 822
34 126 43 143 67 136 9 -3 45 -12 81 -20z m4908 -988 c7 -7 12 -20 12 -31 0
-24 -106 -183 -208 -311 l-78 -100 87 -131 c98 -148 187 -299 195 -333 12 -45
-47 -72 -78 -34 -8 9 -41 62 -73 117 -32 55 -90 147 -128 204 l-69 103 -141
-139 c-78 -76 -159 -153 -180 -171 l-38 -32 47 -78 c26 -42 78 -136 115 -208
75 -143 86 -188 47 -203 -37 -14 -54 4 -107 112 -59 120 -168 307 -180 307 -4
0 -34 -20 -66 -45 -31 -25 -110 -79 -174 -121 -64 -42 -118 -78 -120 -80 -2
-2 24 -68 58 -147 33 -79 61 -155 61 -169 0 -31 -21 -51 -51 -46 -27 4 -25 0
-95 168 -31 74 -58 137 -60 139 -2 2 -14 -3 -26 -11 -60 -39 -258 -138 -275
-138 -27 0 -45 23 -41 52 2 18 34 40 150 103 82 44 148 83 148 87 0 3 -27 54
-60 112 -33 58 -60 114 -60 124 0 25 19 42 47 42 23 0 63 -54 117 -157 43 -82
34 -82 137 -12 52 34 128 88 169 118 41 31 78 59 83 62 11 8 -23 59 -135 207
-43 57 -78 108 -78 114 0 18 32 48 51 48 21 0 64 -49 165 -190 l78 -109 29 21
c16 12 97 87 180 168 l151 147 -39 54 c-22 30 -78 101 -124 158 -76 93 -83
106 -75 130 11 30 46 40 71 19 9 -7 61 -69 116 -138 55 -69 103 -129 107 -133
8 -9 92 92 175 213 97 141 105 150 129 150 12 0 27 -5 34 -12z"/>
<path d="M4732 10269 c-113 -56 -201 -231 -190 -378 8 -105 59 -169 142 -178
145 -17 300 202 283 403 -11 144 -116 212 -235 153z m126 -221 c30 -30 1 -135
-44 -159 -33 -17 -54 3 -54 53 0 80 59 145 98 106z"/>
<path d="M5790 10072 c-64 -24 -162 -124 -200 -203 -40 -86 -64 -197 -57 -268
15 -144 106 -239 218 -228 151 13 292 184 327 394 14 85 14 97 -2 156 -39 143
-149 200 -286 149z m156 -267 c12 -19 15 -41 12 -84 -5 -75 -43 -131 -88 -131
-36 0 -50 23 -50 85 0 58 20 105 55 133 36 28 51 28 71 -3z"/>
<path d="M4038 9655 c-67 -18 -127 -54 -162 -98 -62 -77 -43 -219 49 -357 49
-73 137 -155 204 -190 l38 -19 6 -103 c5 -91 21 -175 43 -232 7 -17 3 -18 -47
-14 -81 6 -143 42 -241 136 -94 91 -118 99 -118 39 0 -102 94 -223 221 -286
l66 -32 17 -122 c21 -145 50 -288 68 -339 20 -56 60 -94 145 -137 248 -124
532 -145 763 -56 263 102 427 246 626 552 153 234 161 246 199 290 l32 38 42
-38 c46 -41 79 -47 106 -17 26 28 13 98 -28 153 -68 88 -167 130 -266 111 -42
-8 -46 -12 -49 -40 -3 -26 3 -36 26 -53 17 -12 37 -21 46 -21 27 0 18 -15 -31
-57 -142 -118 -276 -195 -433 -247 -158 -53 -270 -69 -425 -63 -240 10 -429
80 -542 201 -67 71 -82 108 -90 224 l-6 82 49 0 c78 0 183 27 262 66 132 64
252 203 252 288 -1 101 -131 229 -299 296 -111 43 -208 60 -346 59 -72 0 -151
-6 -177 -14z m311 -1144 c20 -15 55 -39 77 -52 40 -22 42 -26 48 -82 7 -65 8
-397 2 -397 -27 0 -137 45 -153 62 -44 49 -71 134 -98 313 -22 148 -22 148 28
167 57 21 55 22 96 -11z m406 -166 c61 -10 116 -19 123 -21 14 -4 12 -32 -20
-239 -11 -71 -25 -136 -31 -144 -9 -11 -34 -13 -118 -8 -58 4 -113 9 -122 13
-15 5 -17 24 -17 139 0 72 3 167 7 209 l6 78 31 -4 c17 -3 81 -13 141 -23z"/>
<path d="M7545 9618 c-64 -33 -165 -118 -171 -144 -16 -63 25 -70 124 -20 84
42 162 110 162 140 0 49 -48 59 -115 24z"/>
<path d="M4117 5863 c-11 -19 -59 -222 -87 -368 -92 -470 -40 -572 343 -675
314 -83 628 -70 761 32 122 92 166 231 261 814 l5 31 -102 7 c-223 15 -702 80
-1035 142 -152 28 -141 26 -146 17z"/>
</g>
</svg>
