<?xml version="1.0" standalone="no"?>
<!DOCTYPE svg PUBLIC "-//W3C//DTD SVG 20010904//EN" "http://www.w3.org/TR/2001/REC-SVG-20010904/DTD/svg10.dtd">
<svg version="1.0" xmlns="http://www.w3.org/2000/svg"
    width="1599.000000pt" height="1599.000000pt" viewBox="0 0 1599.000000 1599.000000"
    preserveAspectRatio="xMidYMid meet">

    <g transform="translate(0.000000,1599.000000) scale(0.100000,-0.100000)"
        fill="#000000" stroke="none">
        <path
            d="M5272 12598 c-30 -30 -6 -642 33 -869 29 -167 84 -325 144 -413 22
-31 26 -47 20 -66 -4 -14 -16 -62 -25 -108 l-18 -82 -46 6 c-128 17 -239 -72
-240 -192 0 -45 -4 -55 -40 -92 -44 -47 -65 -106 -57 -165 4 -32 0 -46 -25
-81 -32 -46 -44 -104 -34 -159 9 -46 75 -120 131 -147 25 -12 45 -25 45 -29 0
-4 -11 -41 -25 -81 -44 -128 -27 -204 55 -247 50 -27 126 -30 169 -8 32 16 41
12 41 -20 0 -33 66 -260 107 -365 161 -421 439 -728 825 -910 109 -51 244 -99
342 -121 l55 -12 -21 -51 c-135 -331 -225 -729 -259 -1146 -23 -291 -11 -721
27 -957 8 -53 14 -96 12 -97 -2 -1 -52 -12 -112 -24 -229 -46 -387 -160 -411
-296 -8 -50 15 -106 54 -129 94 -55 459 -86 789 -68 379 22 613 66 685 129 20
18 23 80 6 149 -17 67 14 333 52 451 11 32 13 33 48 28 125 -22 204 -74 272
-179 67 -103 129 -304 129 -417 0 -88 35 -126 164 -177 190 -74 568 -116 869
-95 266 18 364 62 374 168 12 118 -83 228 -277 321 -63 31 -117 57 -119 59 -4
4 20 254 25 254 1 0 48 -9 103 -20 205 -40 396 -37 601 11 417 97 745 381 860
744 31 98 39 294 15 384 -63 241 -250 385 -477 368 -45 -4 -100 -16 -130 -28
-150 -63 -316 -211 -513 -459 -54 -69 -132 -166 -172 -216 -90 -114 -189 -206
-253 -239 -67 -34 -68 -10 -1 39 57 40 120 120 153 191 18 40 23 70 24 153 l1
102 120 83 c338 235 484 383 553 557 27 69 36 191 21 272 -53 274 -394 598
-899 852 l-73 37 31 37 c61 73 120 155 147 203 19 37 31 48 42 43 9 -3 34 -8
56 -11 58 -7 97 28 124 110 51 153 53 369 6 597 -4 21 1 28 34 44 64 30 105
71 141 137 39 73 50 165 31 257 -12 55 -11 59 19 127 54 121 72 221 67 370
-10 264 -101 469 -289 654 -100 98 -175 152 -293 211 -139 70 -252 100 -397
107 -180 9 -289 -13 -448 -91 -71 -35 -249 -168 -257 -192 -7 -20 362 -314
561 -447 166 -110 302 -224 430 -358 147 -155 168 -193 51 -94 -83 71 -243
187 -420 305 -253 169 -330 230 -678 537 -125 111 -298 211 -432 252 -192 58
-408 37 -503 -50 -165 -150 -28 -412 305 -583 106 -54 102 -48 56 -103 -101
-122 -243 -366 -286 -494 -3 -10 -22 -19 -54 -23 -192 -26 -352 -149 -419
-321 -24 -63 -27 -267 -5 -360 18 -74 78 -218 123 -291 85 -141 231 -308 365
-417 35 -28 61 -52 59 -54 -6 -6 -252 45 -321 66 -260 80 -412 167 -571 325
-134 135 -227 278 -319 496 l-32 74 33 71 c18 38 40 97 49 130 30 119 13 280
-40 371 -45 77 -138 152 -207 169 -16 4 -28 9 -28 11 0 2 11 52 25 112 l26
108 82 54 c202 133 498 491 716 869 52 89 52 89 -74 126 -49 14 -175 51 -280
82 -104 31 -228 66 -275 79 -47 12 -132 36 -190 52 -58 17 -166 47 -240 67
-74 20 -148 41 -164 46 -37 12 -40 11 -54 -3z m2745 -1283 c232 -38 377 -99
628 -266 189 -127 325 -243 426 -365 l26 -32 71 35 c91 43 188 54 241 26 96
-50 112 -252 28 -341 -33 -35 -96 -69 -157 -85 -35 -10 -54 -20 -53 -28 1 -8
13 -57 27 -109 33 -125 50 -283 42 -395 -7 -91 -34 -175 -57 -175 -7 0 -35 21
-62 47 l-50 47 -13 -30 c-6 -16 -24 -61 -39 -101 -30 -81 -81 -164 -144 -235
-40 -45 -46 -48 -92 -48 -28 0 -82 -7 -122 -16 -342 -78 -580 -302 -732 -689
-40 -102 -34 -98 -145 -90 -236 17 -659 75 -683 95 -17 15 161 395 244 521
l39 58 72 -2 c60 -2 73 1 76 14 2 12 -10 22 -45 34 -153 55 -189 75 -312 173
-241 193 -367 334 -464 519 -51 98 -76 171 -91 274 -44 293 118 474 453 505
81 8 100 24 61 54 -23 17 -23 20 -11 61 20 65 114 241 165 307 108 141 211
205 381 237 95 18 182 18 292 0z m-2607 -380 c32 -17 38 -30 16 -38 -7 -3 -28
-28 -46 -56 -36 -55 -46 -59 -89 -36 -50 25 -55 73 -12 116 34 33 83 39 131
14z m326 -90 c106 -62 150 -217 108 -378 -8 -33 -33 -95 -55 -138 -42 -85 -46
-99 -26 -99 8 0 28 -38 47 -87 41 -111 128 -293 171 -358 226 -345 629 -567
1074 -591 61 -3 116 -8 123 -10 9 -3 -1 -21 -31 -56 -69 -83 -148 -202 -227
-343 -40 -71 -84 -150 -98 -173 -28 -51 -26 -50 -181 -6 -254 74 -484 209
-670 395 -221 221 -364 493 -480 912 l-29 107 38 153 c58 230 99 336 160 412
17 21 30 44 30 51 0 15 -26 19 -34 5 -10 -15 -91 -22 -137 -12 -105 24 -120
134 -27 205 69 52 166 56 244 11z m-488 -134 c20 -10 49 -21 63 -24 19 -5 28
-15 32 -36 10 -47 63 -100 108 -107 53 -9 56 -18 12 -39 -72 -34 -220 8 -280
79 -21 25 -24 38 -20 73 4 42 21 73 39 73 5 0 25 -8 46 -19z m-70 -250 c32
-21 101 -48 156 -59 51 -10 65 -32 43 -66 -27 -41 -83 -52 -152 -31 -75 24
-125 70 -125 117 0 57 31 73 78 39z m3741 -1380 c133 -55 360 -191 516 -310
33 -25 62 -48 65 -51 3 -3 36 -32 74 -65 185 -159 285 -358 257 -509 -22 -119
-119 -263 -257 -382 -69 -60 -237 -183 -381 -279 -57 -37 -103 -74 -103 -81 0
-7 9 -31 21 -54 33 -63 35 -108 7 -177 -68 -168 -231 -246 -373 -179 -87 41
-133 112 -142 223 -4 57 -1 81 21 146 41 122 81 173 344 441 109 112 245 272
264 313 18 37 1 67 -66 116 -119 87 -359 197 -432 197 -28 0 -32 -24 -10 -49
13 -14 13 -25 -1 -86 -22 -99 -22 -354 0 -464 9 -46 17 -89 17 -97 0 -39 -162
7 -247 69 -135 100 -193 236 -193 454 0 98 5 135 26 208 52 182 157 364 283
493 76 78 181 152 216 152 12 0 54 -13 94 -29z m-1866 -573 c42 -49 1 -137
-65 -138 -38 0 -68 32 -68 73 0 81 83 122 133 65z m1081 -117 c27 -30 23 -88
-7 -119 -76 -76 -171 25 -101 107 31 37 81 42 108 12z m805 -163 c71 -31 161
-86 161 -97 0 -10 -98 -130 -180 -219 -64 -71 -76 -80 -84 -64 -12 21 -21 313
-12 377 8 53 5 53 115 3z m-1774 -59 c294 -50 530 -82 698 -94 70 -5 100 -12
104 -22 14 -36 -69 -445 -107 -525 -47 -100 -130 -159 -253 -180 -142 -23
-428 23 -549 89 -117 64 -152 180 -117 391 17 105 80 356 92 363 5 4 24 3 41
-2 17 -5 58 -14 91 -20z m3121 -634 c8 -19 -40 -98 -117 -194 -32 -41 -59 -79
-59 -84 0 -5 29 -54 65 -108 36 -54 65 -101 65 -104 0 -3 11 -24 25 -46 28
-44 26 -79 -4 -79 -12 0 -41 38 -90 118 -39 64 -80 128 -90 142 l-20 25 -93
-90 c-51 -49 -103 -99 -116 -110 l-23 -21 40 -67 c65 -106 115 -213 108 -231
-4 -9 -16 -16 -27 -16 -16 0 -28 15 -48 58 -40 83 -115 212 -124 212 -4 0 -38
-23 -75 -51 -37 -28 -87 -62 -110 -76 -24 -14 -43 -30 -43 -36 0 -7 16 -50 35
-97 42 -104 44 -130 11 -130 -21 0 -29 12 -62 91 -21 50 -43 93 -49 96 -7 2
-35 -9 -62 -25 -113 -67 -153 -75 -153 -33 0 15 25 33 95 71 52 28 95 53 95
55 0 2 -18 35 -40 74 -44 78 -46 84 -26 100 23 19 40 4 80 -70 26 -49 43 -69
52 -65 26 10 214 147 214 155 0 5 -31 52 -70 104 -69 95 -79 127 -40 127 21 0
62 -45 120 -130 36 -53 44 -60 58 -49 29 22 212 203 212 211 0 3 -34 49 -75
101 -77 98 -87 120 -58 131 21 8 58 -27 126 -118 l51 -68 33 38 c18 22 58 76
89 122 55 82 87 103 100 67z" />
        <path
            d="M7475 10976 c-70 -31 -124 -128 -125 -224 0 -74 19 -115 62 -133 94
-39 208 91 208 238 0 109 -59 157 -145 119z m83 -172 c2 -22 -4 -40 -21 -59
-28 -34 -47 -26 -47 18 0 69 62 105 68 41z" />
        <path
            d="M8146 10840 c-57 -29 -83 -56 -117 -126 -70 -143 -38 -294 68 -320
69 -18 164 49 213 150 41 84 49 167 22 229 -36 81 -107 106 -186 67z m101
-158 c50 -32 3 -167 -51 -146 -25 9 -21 94 5 128 22 28 27 30 46 18z" />
        <path
            d="M7045 10581 c-144 -27 -189 -119 -125 -256 25 -52 124 -159 158 -169
16 -5 21 -20 26 -77 4 -39 13 -90 21 -115 l13 -44 -29 0 c-48 0 -96 26 -160
86 -66 63 -87 63 -75 1 10 -53 67 -120 129 -152 l55 -29 17 -110 c25 -163 40
-210 77 -242 110 -91 357 -131 514 -83 192 59 299 152 468 407 59 89 111 164
117 167 5 4 23 -5 40 -19 17 -14 34 -26 38 -26 15 0 31 25 31 47 0 85 -114
162 -205 139 -35 -9 -31 -46 8 -64 15 -7 25 -17 22 -22 -16 -25 -141 -108
-220 -145 -125 -59 -208 -79 -335 -79 -266 0 -452 124 -438 292 l3 37 65 6
c36 4 83 14 104 23 97 40 186 136 186 200 0 76 -93 160 -228 205 -68 23 -212
35 -277 22z m200 -763 l53 -33 7 -110 c4 -60 5 -126 3 -145 -3 -30 -6 -35 -27
-32 -86 9 -120 74 -146 278 -6 46 -4 51 17 61 33 17 35 16 93 -19z m250 -92
l70 -12 -3 -65 c-2 -35 -8 -91 -15 -124 l-12 -60 -55 -3 c-30 -2 -70 -1 -87 3
l-33 6 0 67 c0 37 3 97 7 135 7 77 2 75 128 53z" />
        <path
            d="M9295 10553 c-52 -28 -115 -85 -115 -103 0 -31 30 -31 90 1 76 40
108 74 94 97 -15 23 -33 25 -69 5z" />
        <path
            d="M7061 8083 c-26 -85 -62 -284 -68 -373 -5 -87 -3 -99 19 -140 34 -63
91 -95 234 -131 91 -23 145 -30 229 -31 217 -4 293 41 348 204 17 50 61 261
72 344 l7 51 -84 7 c-104 9 -376 43 -443 56 -61 11 -289 50 -296 50 -3 0 -11
-17 -18 -37z" />
        <path
            d="M11425 4153 c-101 -21 -217 -85 -278 -153 -36 -39 -65 -87 -56 -93
12 -8 114 -62 186 -99 l83 -42 17 23 c41 59 78 78 154 80 68 1 99 -26 99 -86
0 -76 2 -73 -372 -419 l-108 -99 0 -117 0 -118 440 0 440 0 0 145 0 145 -180
0 c-99 0 -180 3 -180 8 0 4 10 16 23 26 103 87 227 213 256 260 137 229 22
478 -247 535 -50 10 -234 13 -277 4z" />
        <path
            d="M2890 3585 l0 -555 185 0 185 0 0 205 0 205 175 0 175 0 0 -205 0
-205 185 0 185 0 0 555 0 555 -185 0 -185 0 0 -195 0 -195 -175 0 -175 0 0
195 0 195 -185 0 -185 0 0 -555z" />
        <path
            d="M12445 3964 c-66 -96 -169 -245 -230 -332 l-110 -157 -5 -111 c-3
-62 -4 -119 -2 -128 3 -14 34 -16 288 -16 l284 0 0 -95 0 -95 180 0 180 0 0
95 0 94 73 3 72 3 3 142 3 142 -73 3 -73 3 -3 83 -3 82 -174 0 -175 0 0 -85 0
-85 -70 0 c-40 0 -70 4 -70 10 0 6 88 141 196 302 108 160 198 297 201 305 4
11 -30 13 -183 13 l-189 -1 -120 -175z" />
        <path
            d="M4445 3900 c-38 -4 -99 -16 -135 -25 -62 -17 -160 -60 -160 -70 0 -3
24 -52 53 -110 37 -77 56 -105 67 -101 8 2 35 12 60 21 56 21 143 30 204 21
42 -7 106 -46 106 -65 0 -5 -59 -11 -131 -15 -224 -11 -328 -52 -378 -150 -55
-108 -18 -253 82 -322 63 -43 114 -57 207 -58 102 0 170 24 215 77 l35 41 0
-57 0 -57 165 0 165 0 0 273 c0 285 -5 330 -48 413 -24 48 -85 105 -142 134
-85 43 -233 64 -365 50z m203 -547 c5 -32 -24 -80 -58 -98 -37 -19 -73 -19
-110 0 -26 13 -30 21 -30 55 0 54 30 70 125 67 63 -2 70 -4 73 -24z" />
        <path
            d="M10015 3899 c-38 -3 -99 -14 -135 -23 -67 -17 -170 -60 -170 -71 0
-6 110 -215 113 -215 1 0 27 10 57 22 78 30 230 32 280 2 19 -11 36 -28 38
-37 3 -15 -6 -17 -65 -17 -101 0 -238 -17 -293 -35 -65 -22 -134 -84 -156
-140 -12 -33 -15 -63 -12 -115 11 -151 123 -241 303 -243 103 -2 156 15 211
65 l44 41 0 -52 0 -51 171 0 171 0 -5 278 c-5 300 -12 349 -62 424 -86 130
-263 190 -490 167z m195 -554 c0 -81 -109 -135 -172 -85 -37 29 -38 71 -2 99
22 17 41 21 100 21 l74 0 0 -35z" />
        <path
            d="M5084 3887 c-2 -7 -3 -69 -2 -138 l3 -124 133 -3 132 -3 0 -294 0
-295 175 0 175 0 2 293 3 292 130 5 130 5 0 135 0 135 -438 3 c-354 2 -439 0
-443 -11z" />
        <path
            d="M6380 3894 c-136 -20 -229 -62 -290 -131 -113 -129 -89 -348 49 -433
22 -14 41 -29 41 -33 0 -5 -32 -54 -72 -110 -39 -56 -80 -114 -90 -129 l-19
-28 188 0 188 0 73 111 72 110 43 -3 42 -3 3 -107 3 -108 154 0 155 0 0 435 0
435 -257 -1 c-142 -1 -269 -3 -283 -5z m225 -349 l0 -70 -76 -3 c-42 -1 -88 2
-102 7 -35 14 -54 53 -41 89 14 40 48 52 139 50 l80 -3 0 -70z" />
        <path
            d="M7041 3878 c6 -13 59 -108 116 -211 l104 -188 -107 -192 c-59 -106
-116 -207 -126 -225 l-20 -32 212 2 213 3 65 143 c62 134 67 142 94 142 l28 0
0 -145 0 -145 175 0 174 0 3 143 3 142 28 0 c26 0 32 -9 91 -140 l64 -140 212
-3 212 -2 -43 77 c-24 43 -78 141 -121 218 -43 77 -78 146 -78 154 0 7 28 64
62 125 113 204 158 287 158 292 0 2 -84 3 -186 2 l-186 -3 -75 -147 c-74 -147
-74 -148 -109 -148 l-34 0 0 150 0 150 -175 0 -175 0 0 -150 0 -150 -32 0
c-32 0 -35 4 -108 148 l-75 147 -188 3 -188 2 12 -22z" />
        <path
            d="M8657 3893 c-4 -3 -7 -199 -7 -435 l0 -428 180 0 180 0 0 145 0 145
34 0 c34 0 37 -4 122 -145 l88 -145 209 0 c164 0 207 3 201 13 -7 11 -40 63
-211 325 -40 62 -73 115 -73 117 0 3 61 95 135 205 74 109 135 201 135 204 0
3 -83 6 -184 6 l-184 0 -94 -147 -94 -148 -42 -3 -42 -3 0 150 0 151 -173 0
c-96 0 -177 -3 -180 -7z" />
    </g>
</svg>